<svg width="64" height="64" viewBox="0 0 64 64" fill="none" xmlns="http://www.w3.org/2000/svg">
<path d="M56 26.6666C56 45.3333 32 61.3333 32 61.3333C32 61.3333 8 45.3333 8 26.6666C8 20.3014 10.5286 14.1969 15.0294 9.69606C19.5303 5.19519 25.6348 2.66663 32 2.66663C38.3652 2.66663 44.4697 5.19519 48.9706 9.69606C53.4714 14.1969 56 20.3014 56 26.6666Z" stroke="#39D6C0" stroke-width="2" stroke-linecap="round" stroke-linejoin="round"/>
<path d="M32 34.6666C36.4183 34.6666 40 31.0849 40 26.6666C40 22.2483 36.4183 18.6666 32 18.6666C27.5817 18.6666 24 22.2483 24 26.6666C24 31.0849 27.5817 34.6666 32 34.6666Z" stroke="#39D6C0" stroke-width="2" stroke-linecap="round" stroke-linejoin="round"/>
</svg>
