<svg width="64" height="64" viewBox="0 0 64 64" fill="none" xmlns="http://www.w3.org/2000/svg">
<path d="M39.2 16.8C38.7114 17.2985 38.4377 17.9686 38.4377 18.6667C38.4377 19.3647 38.7114 20.0348 39.2 20.5333L43.4667 24.8C43.9652 25.2886 44.6353 25.5623 45.3333 25.5623C46.0314 25.5623 46.7015 25.2886 47.2 24.8L57.2533 14.7467C58.5942 17.7098 59.0002 21.0113 58.4172 24.211C57.8342 27.4108 56.2899 30.3569 53.9901 32.6567C51.6903 34.9566 48.7442 36.5009 45.5444 37.0839C42.3446 37.6669 39.0432 37.2609 36.08 35.92L17.6533 54.3466C16.5925 55.4075 15.1536 56.0035 13.6533 56.0035C12.1531 56.0035 10.7142 55.4075 9.65334 54.3466C8.59248 53.2858 7.99649 51.8469 7.99649 50.3466C7.99649 48.8464 8.59248 47.4075 9.65334 46.3466L28.08 27.92C26.7391 24.9568 26.3331 21.6554 26.9161 18.4556C27.4991 15.2558 29.0434 12.3097 31.3433 10.0099C33.6431 7.71009 36.5892 6.16577 39.789 5.58277C42.9887 4.99976 46.2902 5.40576 49.2533 6.74665L39.2267 16.7733L39.2 16.8Z" stroke="#39D6C0" stroke-width="2" stroke-linecap="round" stroke-linejoin="round"/>
</svg>
