<svg width="64" height="64" viewBox="0 0 64 64" fill="none" xmlns="http://www.w3.org/2000/svg">
<path d="M42.6667 56V50.6667C42.6667 47.8377 41.5429 45.1246 39.5425 43.1242C37.5421 41.1238 34.829 40 32 40H13.3333C10.5043 40 7.79124 41.1238 5.79085 43.1242C3.79046 45.1246 2.66666 47.8377 2.66666 50.6667V56" stroke="#39D6C0" stroke-width="2" stroke-linecap="round" stroke-linejoin="round"/>
<path d="M22.6667 29.3333C28.5577 29.3333 33.3333 24.5577 33.3333 18.6667C33.3333 12.7756 28.5577 8 22.6667 8C16.7756 8 12 12.7756 12 18.6667C12 24.5577 16.7756 29.3333 22.6667 29.3333Z" stroke="#39D6C0" stroke-width="2" stroke-linecap="round" stroke-linejoin="round"/>
<path d="M45.3333 29.3333L50.6667 34.6667L61.3333 24" stroke="#39D6C0" stroke-width="2" stroke-linecap="round" stroke-linejoin="round"/>
</svg>
